<?xml version="1.0" standalone="no"?>
<!DOCTYPE svg PUBLIC "-//W3C//DTD SVG 20010904//EN"
 "http://www.w3.org/TR/2001/REC-SVG-20010904/DTD/svg10.dtd">
<svg version="1.0" xmlns="http://www.w3.org/2000/svg"
 width="700.000000pt" height="700.000000pt" viewBox="0 0 700.000000 700.000000"
 preserveAspectRatio="xMidYMid meet">
<metadata>
Created by potrace 1.14, written by Peter Selinger 2001-2017
</metadata>
<g transform="transtone(0.000000,700.000000) scale(0.100000,-0.100000)"
fill="#000000" stroke="none">
<path d="M0 3500 l0 -3500 3500 0 3500 0 0 3500 0 3500 -3500 0 -3500 0 0
-3500z m3580 1936 c0 -281 -1 -304 -17 -309 -10 -2 -137 -38 -283 -80 -387
-110 -1128 -317 -1136 -317 -3 0 -4 -289 -1 -642 4 -548 7 -657 22 -738 58
-324 210 -562 510 -799 61 -48 271 -210 468 -359 l358 -272 287 217 c420 317
635 487 711 562 162 160 269 348 321 562 19 78 46 346 36 356 -3 4 -1478 -407
-1521 -423 -9 -4 -14 76 -19 307 -4 171 -5 313 -3 315 10 10 2102 594 2127
594 15 0 7 -952 -9 -1080 -44 -347 -169 -645 -377 -900 -63 -78 -227 -241
-304 -302 -287 -230 -1059 -810 -1111 -836 -86 -44 -179 -47 -262 -9 -93 42
-1137 850 -1301 1007 -247 236 -411 533 -481 873 -37 177 -47 463 -43 1217 l3
635 24 53 c36 79 115 146 204 174 125 38 1771 497 1785 497 9 1 12 -66 12
-303z"/>
</g>
</svg>
